<?xml version="1.0" encoding="UTF-8" standalone="no"?>
<!DOCTYPE svg PUBLIC "-//W3C//DTD SVG 1.1//EN" "http://www.w3.org/Graphics/SVG/1.1/DTD/svg11.dtd">
<svg width="100%" height="100%" viewBox="0 0 32 32" version="1.1" xmlns="http://www.w3.org/2000/svg" xmlns:xlink="http://www.w3.org/1999/xlink" xml:space="preserve" xmlns:serif="http://www.serif.com/" style="fill-rule:evenodd;clip-rule:evenodd;stroke-linejoin:round;stroke-miterlimit:2;">
    <g transform="matrix(1,0,0,1.000478,-0,0)">
        <circle cx="16" cy="16" r="16" style="fill:rgb(15,23,43);"/>
    </g>
    <g transform="matrix(1.793514,0,0,1.793514,-8.445527,-9.526496)">
        <path d="M10.018,18.437L10.018,10.037L13.306,10.037C13.906,10.037 14.448,10.137 14.932,10.337C15.416,10.537 15.83,10.825 16.174,11.201C16.518,11.577 16.782,12.021 16.966,12.533C17.15,13.045 17.242,13.613 17.242,14.237C17.242,14.861 17.15,15.431 16.966,15.947C16.782,16.463 16.52,16.907 16.18,17.279C15.84,17.651 15.426,17.937 14.938,18.137C14.45,18.337 13.906,18.437 13.306,18.437L10.018,18.437ZM11.314,17.321L11.278,17.189L13.246,17.189C13.67,17.189 14.048,17.121 14.38,16.985C14.712,16.849 14.992,16.655 15.22,16.403C15.448,16.151 15.622,15.841 15.742,15.473C15.862,15.105 15.922,14.693 15.922,14.237C15.922,13.781 15.862,13.371 15.742,13.007C15.622,12.643 15.446,12.333 15.214,12.077C14.982,11.821 14.702,11.625 14.374,11.489C14.046,11.353 13.67,11.285 13.246,11.285L11.242,11.285L11.314,11.177L11.314,17.321Z" style="fill:rgb(209,213,220);fill-rule:nonzero;"/>
    </g>
</svg>
